<svg xmlns="http://www.w3.org/2000/svg" viewBox="0 0 138.8 12.7">
<style>.fill {fill:#A8F}</style>
<path d="M2.2,8.4c0,.7.3,1,1,1h.6v1H3a1.6,1.6,0,0,1-1.3-.6,1.4,1.4,0,0,1-.5-1.3V3.6H0V2.7H1.2V1l1-.5V2.7H3.9v.9H2.2Z" class="fill"/><path d="M6.5,7.2A2.6,2.6,0,0,0,7,9a2,2,0,0,0,1.5.5,1.6,1.6,0,0,0,1.2-.4,1.2,1.2,0,0,0,.5-1h1a2.1,2.1,0,0,1-.8,1.7,2.8,2.8,0,0,1-2,.6,2.5,2.5,0,0,1-2.1-.8,2.9,2.9,0,0,1-.8-2.4V5.8a3.2,3.2,0,0,1,.8-2.4,2.9,2.9,0,0,1,2.1-.8,3.2,3.2,0,0,1,2.1.8,3.6,3.6,0,0,1,.7,2.4v1H6.5Zm0-1.4V6h3.7V5.7A2.2,2.2,0,0,0,9.7,4a1.7,1.7,0,0,0-1.3-.4A1.6,1.6,0,0,0,7,4.1,2.5,2.5,0,0,0,6.5,5.8Z" class="fill"/><path d="M18.5,5.2v5.2h-1V9.5a1.8,1.8,0,0,1-.9.7,2.2,2.2,0,0,1-1.2.2,2.7,2.7,0,0,1-1.9-.5,2.4,2.4,0,0,1-.7-1.7,2.2,2.2,0,0,1,.7-1.6A2.9,2.9,0,0,1,15.4,6h2V5.2A1.7,1.7,0,0,0,17,3.9a1.7,1.7,0,0,0-1.3-.4,2.1,2.1,0,0,0-1.2.3,1.3,1.3,0,0,0-.4,1h-1a1.9,1.9,0,0,1,.7-1.6,2.7,2.7,0,0,1,1.9-.6,3.3,3.3,0,0,1,2.1.7A2.6,2.6,0,0,1,18.5,5.2ZM17.4,7.8v-1H15.5c-1.1,0-1.6.4-1.6,1.4s.5,1.4,1.6,1.4A2.1,2.1,0,0,0,17,9.2,2,2,0,0,0,17.4,7.8Z" class="fill"/><path d="M21.2,9.6a6,6,0,0,1-.7-3v-1a5.4,5.4,0,0,1,.7-2.9,4.8,4.8,0,0,1,2-2A5.7,5.7,0,0,1,26.1,0a6,6,0,0,1,3,.7,5.5,5.5,0,0,1,2,2,6.5,6.5,0,0,1,.7,2.9v1a3.4,3.4,0,0,1-.6,2.2,2.2,2.2,0,0,1-1.7.7,1.7,1.7,0,0,1-1-.3,1.4,1.4,0,0,1-.7-.8c-.2.4-.4.7-.7.8a2.7,2.7,0,0,1-1.2.3,1.8,1.8,0,0,1-1.7-.7,3,3,0,0,1-.6-2V5.6a3,3,0,0,1,.6-2,1.8,1.8,0,0,1,1.6-.7,1.6,1.6,0,0,1,1,.2,1.1,1.1,0,0,1,.7.6V3h1V7.4a1.2,1.2,0,0,0,.3.9,1,1,0,0,0,.7.4,1.1,1.1,0,0,0,.9-.5,3.2,3.2,0,0,0,.3-1.6v-1a6.2,6.2,0,0,0-.5-2.5,4.1,4.1,0,0,0-1.6-1.6A4.9,4.9,0,0,0,26.1,1a4.7,4.7,0,0,0-2.4.5,4.1,4.1,0,0,0-1.6,1.6,4.9,4.9,0,0,0-.6,2.5v1a4.9,4.9,0,0,0,.6,2.5,4.1,4.1,0,0,0,1.6,1.6,4.8,4.8,0,0,0,2.4.6l1.8-.2a4.7,4.7,0,0,0,1.5-.6l.3.9-1.6.7-2,.2a6.9,6.9,0,0,1-2.9-.7A5.5,5.5,0,0,1,21.2,9.6Zm6.3-4c0-1.3-.5-1.9-1.4-1.9s-1.4.7-1.4,1.9V6.7A2.6,2.6,0,0,0,25,8.1c.2.4.6.5,1.1.5s1.4-.6,1.4-1.8Z" class="fill"/><path d="M35.4,8.4c0,.7.3,1,1,1H37v1h-.8a1.5,1.5,0,0,1-1.3-.6,1.4,1.4,0,0,1-.5-1.3V3.6H33.2V2.7h1.2V1l1-.5V2.7h1.7v.9H35.4Z" class="fill"/><path d="M39.7,7.2A2.6,2.6,0,0,0,40.2,9a1.8,1.8,0,0,0,1.5.5,1.6,1.6,0,0,0,1.2-.4,1.2,1.2,0,0,0,.5-1h1a2.1,2.1,0,0,1-.8,1.7,3,3,0,0,1-2,.6,2.5,2.5,0,0,1-2.1-.8,2.9,2.9,0,0,1-.8-2.4V5.8a3.2,3.2,0,0,1,.8-2.4,2.9,2.9,0,0,1,2.1-.8,2.8,2.8,0,0,1,2,.8,3.2,3.2,0,0,1,.8,2.4v1H39.7Zm0-1.4V6h3.7V5.7A2.6,2.6,0,0,0,42.9,4a1.8,1.8,0,0,0-1.3-.4,1.6,1.6,0,0,0-1.4.5C39.8,4.4,39.7,5,39.7,5.8Z" class="fill"/><path d="M51.6,5.2v5.2h-1V9.5a1.3,1.3,0,0,1-.8.7,2.7,2.7,0,0,1-1.3.2,2.4,2.4,0,0,1-1.8-.5A2.1,2.1,0,0,1,46,8.2a1.9,1.9,0,0,1,.7-1.6A2.7,2.7,0,0,1,48.6,6h2V5.2a1.7,1.7,0,0,0-.4-1.3,1.7,1.7,0,0,0-1.3-.4,2.1,2.1,0,0,0-1.2.3,1.4,1.4,0,0,0-.5,1h-1A1.9,1.9,0,0,1,47,3.2a2.7,2.7,0,0,1,1.9-.6,2.8,2.8,0,0,1,2,.7A2.2,2.2,0,0,1,51.6,5.2Zm-1,2.6v-1H48.7c-1.1,0-1.7.4-1.7,1.4s.6,1.4,1.7,1.4a2.1,2.1,0,0,0,1.5-.4A2,2,0,0,0,50.6,7.8Z" class="fill"/><path d="M54.9,2.7v1a1.8,1.8,0,0,1,.9-.8A2.2,2.2,0,0,1,57,2.7a2.8,2.8,0,0,1,1.3.3,1.8,1.8,0,0,1,.8.9,2.6,2.6,0,0,1,2.4-1.2,2.1,2.1,0,0,1,1.8.7,2.4,2.4,0,0,1,.7,2v5H63V5.5a2,2,0,0,0-.5-1.4,1.3,1.3,0,0,0-1.2-.5,1.7,1.7,0,0,0-1.4.5,2,2,0,0,0-.4,1.4v4.9H58.4V5.5A2,2,0,0,0,58,4.1a1.4,1.4,0,0,0-1.3-.5,1.5,1.5,0,0,0-1.3.5,2,2,0,0,0-.5,1.4v4.9h-1V2.7Z" class="fill"/><path d="M71.5,5.2v5.2h-1V9.5a1.5,1.5,0,0,1-.9.7,2.2,2.2,0,0,1-1.2.2,2.9,2.9,0,0,1-1.9-.5,2.4,2.4,0,0,1-.6-1.7,2.1,2.1,0,0,1,.6-1.6A2.9,2.9,0,0,1,68.4,6h2.1V5.2A1.7,1.7,0,0,0,70,3.9a1.7,1.7,0,0,0-1.3-.4,2.1,2.1,0,0,0-1.2.3,1.3,1.3,0,0,0-.4,1h-1a1.9,1.9,0,0,1,.7-1.6,2.9,2.9,0,0,1,1.9-.6,3.3,3.3,0,0,1,2.1.7A2.6,2.6,0,0,1,71.5,5.2Zm-1,2.6v-1H68.6c-1.2,0-1.7.4-1.7,1.4s.5,1.4,1.6,1.4A2.1,2.1,0,0,0,70,9.2,2,2,0,0,0,70.5,7.8Z" class="fill"/><path d="M74.7,8.1v2.3h-1V0h1V6.8l3.4-4.1h1.2L76.8,5.6l2.9,4.8H78.5l-2.3-4Z" class="fill"/><path d="M81.9,7.2A2.6,2.6,0,0,0,82.4,9a2,2,0,0,0,1.5.5,1.8,1.8,0,0,0,1.3-.4,1.2,1.2,0,0,0,.4-1h1a2.1,2.1,0,0,1-.7,1.7,3.3,3.3,0,0,1-2.1.6,2.5,2.5,0,0,1-2.1-.8,3.3,3.3,0,0,1-.8-2.4V5.8a3.6,3.6,0,0,1,.8-2.4,3.2,3.2,0,0,1,4.2,0,3.6,3.6,0,0,1,.8,2.4v1H81.9Zm0-1.4V6h3.8V5.7A2.6,2.6,0,0,0,85.2,4a2.1,2.1,0,0,0-1.4-.4,1.7,1.7,0,0,0-1.4.5A2.5,2.5,0,0,0,81.9,5.8Z" class="fill"/><path d="M88.3,8.2h1a1.2,1.2,0,0,0,.4,1,2.9,2.9,0,0,0,1.4.4,1.8,1.8,0,0,0,1.3-.4,1.1,1.1,0,0,0,.5-1,.9.9,0,0,0-.4-.8,1.9,1.9,0,0,0-1-.4l-1-.2a3,3,0,0,1-1.6-.6,2,2,0,0,1-.5-1.4,2,2,0,0,1,.7-1.6A2.9,2.9,0,0,1,91,2.6a3,3,0,0,1,2,.6,1.9,1.9,0,0,1,.8,1.5h-1a1.4,1.4,0,0,0-.5-1,2.1,2.1,0,0,0-1.2-.3,2.3,2.3,0,0,0-1.3.3,1.3,1.3,0,0,0-.4,1,.8.8,0,0,0,.3.7,1.3,1.3,0,0,0,1,.4l1,.2a4,4,0,0,1,1.6.7,1.7,1.7,0,0,1,.6,1.4,1.8,1.8,0,0,1-.8,1.6,3.3,3.3,0,0,1-2.1.6,3.2,3.2,0,0,1-2-.6A1.9,1.9,0,0,1,88.3,8.2Z" class="fill"/><path d="M96.6,9v1.4H95.3V9Z" class="fill"/><path d="M98.4,10.7h1a1.2,1.2,0,0,0,.6.8,1.6,1.6,0,0,0,1.1.3c1.2,0,1.8-.6,1.8-2v-1a3,3,0,0,1-.8.8,2.8,2.8,0,0,1-1.3.3A2.5,2.5,0,0,1,99,9.1a3.2,3.2,0,0,1-.7-2.3V5.7A3.3,3.3,0,0,1,99,3.3a2.5,2.5,0,0,1,1.9-.7,2.1,2.1,0,0,1,2,1.2V2.7h1V9.8a2.8,2.8,0,0,1-.7,2.1,2.5,2.5,0,0,1-2.1.8,3.6,3.6,0,0,1-1.9-.5A2.2,2.2,0,0,1,98.4,10.7Zm4.5-4V5.8a3.1,3.1,0,0,0-.5-1.7,1.5,1.5,0,0,0-1.3-.6c-1.2,0-1.8.8-1.8,2.3v.9c0,1.5.6,2.3,1.7,2.3a1.7,1.7,0,0,0,1.4-.7A2.5,2.5,0,0,0,102.9,6.7Z" class="fill"/><path d="M111.4,5.2v5.2h-1V9.5a1.3,1.3,0,0,1-.9.7,2.2,2.2,0,0,1-1.2.2,2.9,2.9,0,0,1-1.9-.5,2.4,2.4,0,0,1-.6-1.7,2.1,2.1,0,0,1,.6-1.6,2.9,2.9,0,0,1,1.9-.6h2.1V5.2a1.7,1.7,0,0,0-.5-1.3,1.7,1.7,0,0,0-1.3-.4,2.1,2.1,0,0,0-1.2.3,1.3,1.3,0,0,0-.4,1h-1a1.9,1.9,0,0,1,.7-1.6,2.9,2.9,0,0,1,1.9-.6,3.3,3.3,0,0,1,2.1.7A2.2,2.2,0,0,1,111.4,5.2Zm-1,2.6v-1h-1.9c-1.2,0-1.7.4-1.7,1.4s.5,1.4,1.7,1.4a2,2,0,0,0,1.4-.4A2,2,0,0,0,110.4,7.8Z" class="fill"/><path d="M114.6,2.7v1a3.2,3.2,0,0,1,.9-.8,2.5,2.5,0,0,1,1.2-.2A2.5,2.5,0,0,1,118,3a2,2,0,0,1,.9.9,2.6,2.6,0,0,1,2.3-1.2,2.5,2.5,0,0,1,1.9.7,2.8,2.8,0,0,1,.7,2v5h-1.1V5.5a2,2,0,0,0-.4-1.4,1.9,1.9,0,0,0-2.6,0,2,2,0,0,0-.5,1.4v4.9h-1V5.5a2,2,0,0,0-.5-1.4,1.4,1.4,0,0,0-1.3-.5,1.7,1.7,0,0,0-1.3.5,2,2,0,0,0-.4,1.4v4.9h-1.1V2.7Z" class="fill"/><path d="M126.8,7.2a2.6,2.6,0,0,0,.5,1.8,2,2,0,0,0,1.5.5,1.6,1.6,0,0,0,1.2-.4,1.2,1.2,0,0,0,.5-1h1a2.1,2.1,0,0,1-.8,1.7,2.8,2.8,0,0,1-2,.6,2.5,2.5,0,0,1-2.1-.8,2.9,2.9,0,0,1-.8-2.4V5.8a3.2,3.2,0,0,1,.8-2.4,2.9,2.9,0,0,1,2.1-.8,3.2,3.2,0,0,1,2.1.8,3.6,3.6,0,0,1,.8,2.4v1h-4.8Zm0-1.4V6h3.7V5.7A2.2,2.2,0,0,0,130,4a1.8,1.8,0,0,0-1.3-.4,1.6,1.6,0,0,0-1.4.5A2.5,2.5,0,0,0,126.8,5.8Z" class="fill"/><path d="M133.1,8.2h1a1.2,1.2,0,0,0,.5,1,2.5,2.5,0,0,0,1.3.4,2.1,2.1,0,0,0,1.4-.4,1.1,1.1,0,0,0,.5-1,1.2,1.2,0,0,0-.4-.8,2.3,2.3,0,0,0-1.1-.4l-.9-.2a3,3,0,0,1-1.6-.6,1.6,1.6,0,0,1-.5-1.4,2,2,0,0,1,.7-1.6,2.9,2.9,0,0,1,1.9-.6,3.2,3.2,0,0,1,2,.6,1.9,1.9,0,0,1,.8,1.5h-1a1.4,1.4,0,0,0-.5-1,2.3,2.3,0,0,0-1.3-.3,2.1,2.1,0,0,0-1.2.3,1.4,1.4,0,0,0-.5,1,.8.8,0,0,0,.4.7,1.3,1.3,0,0,0,1,.4l1,.2a4,4,0,0,1,1.6.7,1.7,1.7,0,0,1,.6,1.4,1.8,1.8,0,0,1-.8,1.6,3.3,3.3,0,0,1-2.1.6,3.2,3.2,0,0,1-2-.6A1.9,1.9,0,0,1,133.1,8.2Z" class="fill"/></svg>